SplineFontDB: 3.2
FontName: Plan9
FullName: Plan9
FamilyName: Plan9
Weight: Book
Copyright: 
Version: 1.0
ItalicAngle: 0
UnderlinePosition: -24.1778
UnderlineWidth: 8
Ascent: 113
Descent: 15
InvalidEm: 0
sfntRevision: 0x00010000
LayerCount: 2
Layer: 0 1 "Back" 1
Layer: 1 1 "Fore" 0
XUID: [1021 99 1088095521 2009763]
StyleMap: 0x0000
FSType: 0
OS2Version: 1
OS2_WeightWidthSlopeOnly: 0
OS2_UseTypoMetrics: 0
CreationTime: 1571663667
ModificationTime: 1602415151
PfmFamily: 17
TTFWeight: 400
TTFWidth: 5
LineGap: 15
VLineGap: 0
Panose: 2 0 5 3 0 0 0 0 0 0
OS2TypoAscent: 129
OS2TypoAOffset: 0
OS2TypoDescent: -32
OS2TypoDOffset: 0
OS2TypoLinegap: 15
OS2WinAscent: 0
OS2WinAOffset: 0
OS2WinDescent: 0
OS2WinDOffset: 0
HheadAscent: 115
HheadAOffset: 0
HheadDescent: -15
HheadDOffset: 0
OS2SubXSize: 105
OS2SubYSize: 113
OS2SubXOff: 0
OS2SubYOff: 23
OS2SupXSize: 105
OS2SupYSize: 113
OS2SupXOff: 0
OS2SupYOff: 78
OS2StrikeYSize: 8
OS2StrikeYPos: 42
OS2Vendor: 'PfEd'
OS2CodePages: 00000001.00000000
OS2UnicodeRanges: 00000001.00000000.00000000.00000000
MarkAttachClasses: 1
DEI: 91125
ShortTable: maxp 16
  1
  0
  32
  36
  3
  0
  0
  2
  0
  1
  1
  0
  64
  0
  0
  0
EndShort
LangName: 1033 "" "" "Regular" "FontForge 2.0 : Plan9 : 21-10-2019" "" "Version 1.0"
GaspTable: 1 65535 2 0
Encoding: UnicodeBmp
UnicodeInterp: none
NameList: AGL For New Fonts
DisplaySize: -128
AntiAlias: 1
FitToEm: 0
WinInfo: 0 29 12
BeginPrivate: 0
EndPrivate
BeginChars: 65539 78

StartChar: exclam
Encoding: 33 33 4
Width: 32
VWidth: 161
GlyphClass: 2
Flags: W
LayerCount: 2
Fore
SplineSet
5 115 m 1,0,-1
 5 29 l 1,1,-1
 26 29 l 1,2,-1
 26 115 l 1,3,-1
 5 115 l 1,0,-1
16 -4 m 128,-1,5
 11 -4 11 -4 7 -0.5 c 128,-1,6
 3 3 3 3 3 8.5 c 128,-1,7
 3 14 3 14 7 17.5 c 128,-1,8
 11 21 11 21 16 21 c 128,-1,9
 21 21 21 21 24.5 17.5 c 128,-1,10
 28 14 28 14 28 8.5 c 128,-1,11
 28 3 28 3 24.5 -0.5 c 128,-1,4
 21 -4 21 -4 16 -4 c 128,-1,5
EndSplineSet
EndChar

StartChar: nine
Encoding: 57 57 5
Width: 71
VWidth: 161
GlyphClass: 2
Flags: W
LayerCount: 2
Fore
SplineSet
28 92 m 2,0,-1
 41 92 l 2,1,2
 43 92 43 92 43 90 c 2,3,-1
 43 68 l 2,4,5
 43 66 43 66 41 66 c 2,6,-1
 28 66 l 2,7,8
 26 66 26 66 25 68 c 2,9,-1
 25 90 l 2,10,11
 26 92 26 92 28 92 c 2,0,-1
4 103 m 2,12,-1
 4 55 l 2,13,14
 4 51 4 51 7 48 c 128,-1,15
 10 45 10 45 15 45 c 2,16,-1
 41 45 l 2,17,18
 43 45 43 45 43 47 c 2,19,-1
 43 23 l 2,20,21
 43 21 43 21 41 21 c 2,22,-1
 10 21 l 1,23,-1
 10 0 l 1,24,-1
 54 0 l 2,25,26
 58 0 58 0 61 3 c 128,-1,27
 64 6 64 6 64 11 c 2,28,-1
 64 103 l 2,29,30
 64 107 64 107 61 110 c 128,-1,31
 58 113 58 113 54 113 c 6,32,-1
 15 113 l 6,33,34
 11 113 11 113 7.5 110 c 128,-1,35
 4 107 4 107 4 103 c 2,12,-1
EndSplineSet
EndChar

StartChar: A
Encoding: 65 65 6
Width: 73
VWidth: 161
GlyphClass: 2
Flags: W
LayerCount: 2
Fore
SplineSet
50 0 m 5,0,-1
 48 15 l 5,1,-1
 28 15 l 5,2,-1
 26 0 l 5,3,-1
 5 0 l 5,4,-1
 22 113 l 5,5,-1
 54 113 l 5,6,-1
 71 0 l 5,7,-1
 50 0 l 5,0,-1
38 92 m 5,8,-1
 31 36 l 5,9,-1
 45 36 l 5,10,-1
 38 92 l 5,8,-1
EndSplineSet
EndChar

StartChar: B
Encoding: 66 66 7
Width: 74
VWidth: 161
GlyphClass: 2
Flags: W
LayerCount: 2
Fore
SplineSet
68 49 m 2,0,-1
 68 10 l 2,1,2
 68 6 68 6 65 3 c 128,-1,3
 62 0 62 0 57 0 c 2,4,-1
 5 0 l 1,5,-1
 5 113 l 1,6,-1
 57 113 l 2,7,8
 61 113 61 113 64.5 110 c 128,-1,9
 68 107 68 107 68 103 c 2,10,-1
 68 70 l 2,11,12
 68 66 68 66 65 62.5 c 128,-1,13
 62 59 62 59 57 59 c 1,14,15
 61 59 61 59 64.5 56 c 128,-1,16
 68 53 68 53 68 49 c 2,0,-1
26 70 m 1,17,-1
 45 70 l 2,18,19
 47 70 47 70 47 72 c 2,20,-1
 47 90 l 2,21,22
 47 92 47 92 45 92 c 2,23,-1
 26 92 l 1,24,-1
 26 70 l 1,17,-1
26 21 m 1,25,-1
 45 21 l 2,26,27
 47 21 47 21 47 23 c 2,28,-1
 47 46 l 2,29,30
 47 48 47 48 45 49 c 2,31,-1
 26 49 l 1,32,-1
 26 21 l 1,25,-1
EndSplineSet
EndChar

StartChar: C
Encoding: 67 67 8
Width: 62
VWidth: 161
GlyphClass: 2
Flags: W
LayerCount: 2
Fore
SplineSet
57 21 m 1,0,-1
 30 21 l 2,1,2
 28 21 28 21 28 23 c 2,3,-1
 28 90 l 2,4,5
 28 92 28 92 30 92 c 2,6,-1
 57 92 l 1,7,-1
 57 113 l 1,8,-1
 17 113 l 2,9,10
 13 113 13 113 10 110 c 128,-1,11
 7 107 7 107 7 103 c 2,12,-1
 7 10 l 2,13,14
 7 6 7 6 10 3 c 128,-1,15
 13 0 13 0 17 0 c 2,16,-1
 57 0 l 1,17,-1
 57 21 l 1,0,-1
EndSplineSet
EndChar

StartChar: D
Encoding: 68 68 9
Width: 75
VWidth: 161
GlyphClass: 2
Flags: W
LayerCount: 2
Fore
SplineSet
69 75 m 2,0,-1
 69 39 l 2,1,2
 69 13 69 13 64 7 c 0,3,4
 60 3 60 3 56.5 1.5 c 128,-1,5
 53 0 53 0 47 0 c 2,6,-1
 6 0 l 1,7,-1
 6 113 l 1,8,-1
 47 113 l 2,9,10
 54 113 54 113 57 112 c 0,11,12
 61 111 61 111 64 107 c 0,13,14
 69 101 69 101 69 75 c 2,0,-1
44 92 m 2,15,-1
 27 92 l 1,16,-1
 27 21 l 1,17,-1
 44 21 l 2,18,19
 46 21 46 21 47 22 c 128,-1,20
 48 23 48 23 48 25 c 2,21,-1
 48 88 l 2,22,23
 48 90 48 90 47 91 c 128,-1,24
 46 92 46 92 44 92 c 2,15,-1
EndSplineSet
EndChar

StartChar: E
Encoding: 69 69 10
Width: 59
VWidth: 161
GlyphClass: 2
Flags: W
LayerCount: 2
Fore
SplineSet
52 92 m 1,0,-1
 28 92 l 1,1,-1
 28 68 l 1,2,-1
 49 68 l 1,3,-1
 49 47 l 1,4,-1
 28 47 l 1,5,-1
 28 21 l 1,6,-1
 52 21 l 1,7,-1
 52 0 l 1,8,-1
 7 0 l 1,9,-1
 7 113 l 1,10,-1
 52 113 l 1,11,-1
 52 92 l 1,0,-1
EndSplineSet
EndChar

StartChar: F
Encoding: 70 70 11
Width: 57
VWidth: 161
GlyphClass: 2
Flags: W
LayerCount: 2
Fore
SplineSet
53 92 m 1,0,-1
 28 92 l 1,1,-1
 28 68 l 1,2,-1
 49 68 l 1,3,-1
 49 46 l 1,4,-1
 28 46 l 1,5,-1
 28 0 l 1,6,-1
 7 0 l 1,7,-1
 7 113 l 1,8,-1
 53 113 l 1,9,-1
 53 92 l 1,0,-1
EndSplineSet
EndChar

StartChar: G
Encoding: 71 71 12
Width: 75
VWidth: 161
GlyphClass: 2
Flags: W
LayerCount: 2
Fore
SplineSet
38 63 m 1,0,-1
 68 63 l 2,1,2
 70 63 70 63 70 61 c 2,3,-1
 70 10 l 2,4,5
 70 6 70 6 66.5 3 c 128,-1,6
 63 0 63 0 59 0 c 2,7,-1
 17 0 l 2,8,9
 13 0 13 0 10 3 c 128,-1,10
 7 6 7 6 7 10 c 2,11,-1
 7 103 l 2,12,13
 7 107 7 107 10 110 c 128,-1,14
 13 113 13 113 17 113 c 2,15,-1
 59 113 l 1,16,-1
 59 92 l 1,17,-1
 30 92 l 2,18,19
 28 92 28 92 28 90 c 2,20,-1
 28 23 l 2,21,22
 28 21 28 21 30 21 c 2,23,-1
 47 21 l 2,24,25
 49 21 49 21 49 23 c 2,26,-1
 49 40 l 2,27,28
 49 42 49 42 47 42 c 2,29,-1
 38 42 l 1,30,-1
 38 63 l 1,0,-1
EndSplineSet
EndChar

StartChar: H
Encoding: 72 72 13
Width: 77
VWidth: 161
GlyphClass: 2
Flags: W
LayerCount: 2
Fore
SplineSet
49 46 m 1,0,-1
 49 0 l 1,1,-1
 70 0 l 1,2,-1
 70 113 l 1,3,-1
 49 113 l 1,4,-1
 49 68 l 1,5,-1
 28 68 l 1,6,-1
 28 113 l 1,7,-1
 7 113 l 1,8,-1
 7 0 l 1,9,-1
 28 0 l 1,10,-1
 28 46 l 1,11,-1
 49 46 l 1,0,-1
EndSplineSet
EndChar

StartChar: I
Encoding: 73 73 14
Width: 38
VWidth: 161
GlyphClass: 2
Flags: W
LayerCount: 2
Fore
SplineSet
8 113 m 5,0,-1
 8 0 l 5,1,-1
 29 0 l 5,2,-1
 29 113 l 5,3,-1
 8 113 l 5,0,-1
EndSplineSet
EndChar

StartChar: J
Encoding: 74 74 15
Width: 57
VWidth: 161
GlyphClass: 2
Flags: W
LayerCount: 2
Fore
SplineSet
4 21 m 5,0,-1
 4 0 l 5,1,-1
 42 0 l 6,2,3
 46 0 46 0 49 3 c 132,-1,4
 52 6 52 6 52 10 c 6,5,-1
 52 113 l 5,6,-1
 31 113 l 5,7,-1
 31 23 l 6,8,9
 31 21 31 21 29 21 c 6,10,-1
 4 21 l 5,0,-1
EndSplineSet
EndChar

StartChar: K
Encoding: 75 75 16
Width: 77
VWidth: 161
GlyphClass: 2
Flags: W
LayerCount: 2
Fore
SplineSet
25 113 m 1,0,-1
 25 73 l 1,1,-1
 45 113 l 1,2,-1
 68 113 l 1,3,-1
 45 66 l 1,4,-1
 73 0 l 1,5,-1
 50 0 l 1,6,-1
 33 41 l 1,7,-1
 25 26 l 1,8,-1
 25 0 l 1,9,-1
 4 0 l 1,10,-1
 4 113 l 1,11,-1
 25 113 l 1,0,-1
EndSplineSet
EndChar

StartChar: L
Encoding: 76 76 17
Width: 56
VWidth: 161
GlyphClass: 2
Flags: W
LayerCount: 2
Fore
SplineSet
25 113 m 1,0,-1
 25 21 l 1,1,-1
 52 21 l 1,2,-1
 52 0 l 1,3,-1
 4 0 l 1,4,-1
 4 113 l 1,5,-1
 25 113 l 1,0,-1
EndSplineSet
EndChar

StartChar: M
Encoding: 77 77 18
Width: 101
VWidth: 161
GlyphClass: 2
Flags: W
LayerCount: 2
Fore
SplineSet
37 113 m 1,0,-1
 8 113 l 1,1,-1
 8 0 l 1,2,-1
 29 0 l 1,3,-1
 29 67 l 1,4,-1
 43 0 l 1,5,-1
 60 0 l 1,6,-1
 74 67 l 1,7,-1
 74 0 l 1,8,-1
 95 0 l 1,9,-1
 95 113 l 1,10,-1
 66 113 l 1,11,-1
 51 46 l 1,12,-1
 37 113 l 1,0,-1
EndSplineSet
EndChar

StartChar: N
Encoding: 78 78 19
Width: 77
VWidth: 161
GlyphClass: 2
Flags: W
LayerCount: 2
Fore
SplineSet
5 113 m 1,0,-1
 5 0 l 1,1,-1
 26 0 l 1,2,-1
 26 62 l 1,3,-1
 51 0 l 1,4,-1
 72 0 l 1,5,-1
 72 113 l 1,6,-1
 51 113 l 1,7,-1
 51 51 l 1,8,-1
 26 113 l 1,9,-1
 5 113 l 1,0,-1
EndSplineSet
EndChar

StartChar: O
Encoding: 79 79 20
Width: 74
VWidth: 161
GlyphClass: 2
Flags: W
LayerCount: 2
Fore
SplineSet
48 90 m 6,0,-1
 48 23 l 6,1,2
 48 21 48 21 46 21 c 6,3,-1
 29 21 l 6,4,5
 27 21 27 21 27 23 c 6,6,-1
 27 90 l 6,7,8
 27 92 27 92 29 92 c 6,9,-1
 46 92 l 6,10,11
 48 92 48 92 48 90 c 6,0,-1
6 103 m 6,12,-1
 6 10 l 6,13,14
 6 6 6 6 9 3 c 132,-1,15
 12 0 12 0 16 0 c 6,16,-1
 58 0 l 6,17,18
 62 0 62 0 65.5 3 c 132,-1,19
 69 6 69 6 69 10 c 6,20,-1
 69 103 l 6,21,22
 69 107 69 107 66 110 c 132,-1,23
 63 113 63 113 58 113 c 6,24,-1
 16 113 l 6,25,26
 12 113 12 113 9 110 c 132,-1,27
 6 107 6 107 6 103 c 6,12,-1
EndSplineSet
EndChar

StartChar: P
Encoding: 80 80 21
Width: 70
VWidth: 161
GlyphClass: 2
Flags: W
LayerCount: 2
Fore
SplineSet
67 103 m 2,0,-1
 67 55 l 2,1,2
 67 51 67 51 64 48 c 128,-1,3
 61 45 61 45 57 45 c 2,4,-1
 25 45 l 1,5,-1
 25 0 l 1,6,-1
 4 0 l 1,7,-1
 4 113 l 1,8,-1
 57 113 l 2,9,10
 61 113 61 113 64 110 c 128,-1,11
 67 107 67 107 67 103 c 2,0,-1
25 66 m 1,12,-1
 44 66 l 2,13,14
 46 66 46 66 46 68 c 2,15,-1
 46 90 l 2,16,17
 46 92 46 92 44 92 c 2,18,-1
 25 92 l 1,19,-1
 25 66 l 1,12,-1
EndSplineSet
EndChar

StartChar: Q
Encoding: 81 81 22
Width: 74
VWidth: 161
GlyphClass: 2
Flags: W
LayerCount: 2
Fore
SplineSet
46 -15 m 1,0,-1
 38 0 l 1,1,-1
 16 0 l 2,2,3
 12 0 12 0 9 3 c 128,-1,4
 6 6 6 6 6 10 c 2,5,-1
 6 103 l 2,6,7
 6 107 6 107 9 110 c 128,-1,8
 12 113 12 113 16 113 c 2,9,-1
 58 113 l 2,10,11
 62 113 62 113 65.5 110 c 128,-1,12
 69 107 69 107 69 103 c 2,13,-1
 69 10 l 2,14,15
 69 6 69 6 66 3 c 128,-1,16
 63 0 63 0 59 0 c 1,17,-1
 67 -15 l 1,18,-1
 46 -15 l 1,0,-1
48 23 m 2,19,-1
 48 90 l 2,20,21
 48 92 48 92 46 92 c 2,22,-1
 29 92 l 2,23,24
 27 92 27 92 27 90 c 2,25,-1
 27 23 l 2,26,27
 27 21 27 21 28 21 c 2,28,-1
 46 21 l 2,29,30
 48 21 48 21 48 23 c 2,19,-1
EndSplineSet
EndChar

StartChar: R
Encoding: 82 82 23
Width: 74
VWidth: 161
GlyphClass: 2
Flags: W
LayerCount: 2
Fore
SplineSet
69 103 m 2,0,-1
 69 58 l 2,1,2
 69 54 69 54 65.5 50.5 c 128,-1,3
 62 47 62 47 58 45 c 1,4,-1
 69 0 l 1,5,-1
 46 0 l 1,6,-1
 35 45 l 1,7,-1
 27 45 l 1,8,-1
 27 0 l 1,9,-1
 6 0 l 1,10,-1
 6 113 l 1,11,-1
 58 113 l 2,12,13
 62 113 62 113 65.5 110 c 128,-1,14
 69 107 69 107 69 103 c 2,0,-1
27 66 m 1,15,-1
 46 66 l 2,16,17
 48 66 48 66 48 68 c 2,18,-1
 48 90 l 2,19,20
 48 92 48 92 46 92 c 2,21,-1
 27 92 l 1,22,-1
 27 66 l 1,15,-1
EndSplineSet
EndChar

StartChar: S
Encoding: 83 83 24
Width: 67
VWidth: 161
GlyphClass: 2
Flags: W
LayerCount: 2
Fore
SplineSet
59 113 m 5,0,-1
 59 92 l 5,1,-1
 29 92 l 6,2,3
 27 92 27 92 27 90 c 6,4,-1
 27 72 l 6,5,6
 27 70 27 70 29 70 c 6,7,-1
 52 70 l 6,8,9
 56 70 56 70 59 66.5 c 132,-1,10
 62 63 62 63 62 59 c 6,11,-1
 62 10 l 6,12,13
 62 6 62 6 59 3 c 132,-1,14
 56 0 56 0 52 0 c 6,15,-1
 6 0 l 5,16,-1
 6 21 l 5,17,-1
 39 21 l 6,18,19
 41 21 41 21 41 23 c 6,20,-1
 41 46 l 6,21,22
 41 48 41 48 39 49 c 6,23,-1
 17 49 l 6,24,25
 13 49 13 49 9.5 52 c 132,-1,26
 6 55 6 55 6 59 c 6,27,-1
 6 103 l 6,28,29
 6 107 6 107 9 110 c 132,-1,30
 12 113 12 113 17 113 c 6,31,-1
 59 113 l 5,0,-1
EndSplineSet
EndChar

StartChar: T
Encoding: 84 84 25
Width: 59
VWidth: 161
GlyphClass: 2
Flags: W
LayerCount: 2
Fore
SplineSet
56 113 m 1,0,-1
 4 113 l 1,1,-1
 4 92 l 1,2,-1
 19 92 l 1,3,-1
 19 0 l 1,4,-1
 40 0 l 1,5,-1
 40 92 l 1,6,-1
 56 92 l 1,7,-1
 56 113 l 1,0,-1
EndSplineSet
EndChar

StartChar: U
Encoding: 85 85 26
Width: 77
VWidth: 161
GlyphClass: 2
Flags: W
LayerCount: 2
Fore
SplineSet
17 0 m 2,0,-1
 59 0 l 2,1,2
 63 0 63 0 66.5 3 c 128,-1,3
 70 6 70 6 70 10 c 2,4,-1
 70 113 l 1,5,-1
 49 113 l 1,6,-1
 49 23 l 2,7,8
 49 21 49 21 47 21 c 2,9,-1
 30 21 l 2,10,11
 28 21 28 21 28 23 c 2,12,-1
 28 113 l 1,13,-1
 7 113 l 1,14,-1
 7 10 l 2,15,16
 7 6 7 6 10 3 c 128,-1,17
 13 0 13 0 17 0 c 2,0,-1
EndSplineSet
EndChar

StartChar: V
Encoding: 86 86 27
Width: 75
VWidth: 161
GlyphClass: 2
Flags: W
LayerCount: 2
Fore
SplineSet
25 113 m 1,0,-1
 37 32 l 1,1,-1
 49 113 l 1,2,-1
 69 113 l 1,3,-1
 52 0 l 1,4,-1
 22 0 l 1,5,-1
 5 113 l 1,6,-1
 25 113 l 1,0,-1
EndSplineSet
EndChar

StartChar: W
Encoding: 87 87 28
Width: 105
VWidth: 161
GlyphClass: 2
Flags: W
LayerCount: 2
Fore
SplineSet
22 113 m 1,0,-1
 32 47 l 1,1,-1
 45 110 l 1,2,-1
 61 110 l 1,3,-1
 74 47 l 1,4,-1
 83 113 l 1,5,-1
 103 113 l 1,6,-1
 86 0 l 1,7,-1
 66 0 l 1,8,-1
 53 68 l 1,9,-1
 39 0 l 1,10,-1
 20 0 l 1,11,-1
 3 113 l 1,12,-1
 22 113 l 1,0,-1
EndSplineSet
EndChar

StartChar: X
Encoding: 88 88 29
Width: 71
VWidth: 161
GlyphClass: 2
Flags: W
LayerCount: 2
Fore
SplineSet
70 0 m 1,0,-1
 47 60 l 1,1,-1
 67 113 l 1,2,-1
 45 113 l 1,3,-1
 36 90 l 1,4,-1
 27 113 l 1,5,-1
 4 113 l 1,6,-1
 25 60 l 1,7,-1
 2 0 l 1,8,-1
 25 0 l 1,9,-1
 36 30 l 1,10,-1
 47 0 l 1,11,-1
 70 0 l 1,0,-1
EndSplineSet
EndChar

StartChar: Y
Encoding: 89 89 30
Width: 65
VWidth: 161
GlyphClass: 2
Flags: W
LayerCount: 2
Fore
SplineSet
43 61 m 1,0,-1
 43 61 l 1,1,-1
 63 113 l 1,2,-1
 42 113 l 1,3,-1
 33 89 l 1,4,-1
 23 113 l 1,5,-1
 2 113 l 1,6,-1
 22 61 l 1,7,-1
 22 0 l 1,8,-1
 43 0 l 1,9,-1
 43 61 l 1,0,-1
EndSplineSet
EndChar

StartChar: Z
Encoding: 90 90 31
Width: 72
VWidth: 161
GlyphClass: 2
Flags: W
LayerCount: 2
Fore
SplineSet
8 113 m 1,0,-1
 8 92 l 1,1,-1
 38 92 l 1,2,-1
 3 0 l 1,3,-1
 67 0 l 1,4,-1
 67 21 l 1,5,-1
 33 21 l 1,6,-1
 68 113 l 1,7,-1
 8 113 l 1,0,-1
EndSplineSet
EndChar

StartChar: zero
Encoding: 48 48 36
Width: 71
VWidth: 161
Flags: W
LayerCount: 2
Fore
SplineSet
33 67 m 5,0,-1
 38 67 l 5,1,-1
 38 49 l 5,2,-1
 33 49 l 5,3,-1
 33 67 l 5,0,-1
43 90 m 6,4,-1
 43 23 l 6,5,6
 43 21 43 21 38 21 c 6,7,-1
 33 21 l 6,8,9
 28 21 28 21 27 23 c 6,10,-1
 27 90 l 6,11,12
 27 92 27 92 33 92 c 6,13,-1
 38 92 l 6,14,15
 43 92 43 92 43 90 c 6,4,-1
6 103 m 6,16,-1
 6 10 l 6,17,18
 6 6 6 6 9 3 c 132,-1,19
 12 0 12 0 17 0 c 6,20,-1
 53 0 l 6,21,22
 57 0 57 0 60.5 3 c 132,-1,23
 64 6 64 6 64 10 c 6,24,-1
 64 103 l 6,25,26
 64 107 64 107 61 110 c 132,-1,27
 58 113 58 113 53 113 c 6,28,-1
 17 113 l 6,29,30
 13 113 13 113 9.5 110 c 132,-1,31
 6 107 6 107 6 103 c 6,16,-1
EndSplineSet
EndChar

StartChar: one
Encoding: 49 49 37
Width: 71
VWidth: 161
Flags: W
LayerCount: 2
Fore
SplineSet
4 92 m 5,0,-1
 4 113 l 5,1,-1
 42 113 l 6,2,3
 46 113 46 113 49 110 c 132,-1,4
 52 107 52 107 52 103 c 6,5,-1
 52 0 l 5,6,-1
 31 0 l 5,7,-1
 31 90 l 6,8,9
 31 92 31 92 29 92 c 6,10,-1
 4 92 l 5,0,-1
EndSplineSet
EndChar

StartChar: two
Encoding: 50 50 38
Width: 71
VWidth: 161
Flags: W
LayerCount: 2
Fore
SplineSet
59 0 m 5,0,-1
 59 21 l 5,1,-1
 29 21 l 6,2,3
 27 21 27 21 27 23 c 6,4,-1
 27 42 l 6,5,6
 27 44 27 44 29 44 c 6,7,-1
 52 44 l 6,8,9
 56 44 56 44 59 47 c 132,-1,10
 62 50 62 50 62 54 c 6,11,-1
 62 103 l 6,12,13
 62 107 62 107 59 110 c 132,-1,14
 56 113 56 113 52 113 c 6,15,-1
 6 113 l 5,16,-1
 6 92 l 5,17,-1
 39 92 l 6,18,19
 41 92 41 92 41 90 c 6,20,-1
 41 67 l 6,21,22
 41 65 41 65 39 65 c 6,23,-1
 17 65 l 6,24,25
 13 65 13 65 9.5 61.5 c 132,-1,26
 6 58 6 58 6 54 c 6,27,-1
 6 10 l 6,28,29
 6 6 6 6 9 3 c 132,-1,30
 12 0 12 0 17 0 c 6,31,-1
 59 0 l 5,0,-1
EndSplineSet
EndChar

StartChar: five
Encoding: 53 53 39
Width: 71
VWidth: 161
Flags: W
LayerCount: 2
Fore
SplineSet
9 0 m 5,0,-1
 9 21 l 5,1,-1
 39 21 l 6,2,3
 41 21 41 21 41 23 c 6,4,-1
 41 42 l 6,5,6
 41 44 41 44 39 44 c 6,7,-1
 17 44 l 6,8,9
 13 44 13 44 9.5 47 c 132,-1,10
 6 50 6 50 6 54 c 6,11,-1
 6 103 l 6,12,13
 6 107 6 107 9 110 c 132,-1,14
 12 113 12 113 17 113 c 6,15,-1
 62 113 l 5,16,-1
 62 92 l 5,17,-1
 29 92 l 6,18,19
 27 92 27 92 27 90 c 6,20,-1
 27 67 l 6,21,22
 27 65 27 65 29 65 c 6,23,-1
 52 65 l 6,24,25
 56 65 56 65 59 61.5 c 132,-1,26
 62 58 62 58 62 54 c 6,27,-1
 62 10 l 6,28,29
 62 6 62 6 59 3 c 132,-1,30
 56 0 56 0 52 0 c 6,31,-1
 9 0 l 5,0,-1
EndSplineSet
EndChar

StartChar: eight
Encoding: 56 56 40
Width: 71
VWidth: 161
Flags: W
LayerCount: 2
Fore
SplineSet
14 66 m 1,0,-1
 14 102 l 2,1,2
 14 106 14 106 17 109.5 c 128,-1,3
 20 113 20 113 25 113 c 2,4,-1
 46 113 l 2,5,6
 50 113 50 113 53 110 c 128,-1,7
 56 107 56 107 56 102 c 2,8,-1
 56 66 l 1,9,10
 60 66 60 66 63.5 62.5 c 128,-1,11
 67 59 67 59 67 55 c 2,12,-1
 67 10 l 2,13,14
 67 6 67 6 64 3 c 128,-1,15
 61 0 61 0 56 0 c 2,16,-1
 14 0 l 2,17,18
 10 0 10 0 7 3 c 128,-1,19
 4 6 4 6 4 10 c 2,20,-1
 4 55 l 2,21,22
 4 59 4 59 7 62.5 c 128,-1,23
 10 66 10 66 14 66 c 1,0,-1
38 92 m 6,24,25
 38 94 38 94 36 94 c 6,26,-1
 35 94 l 2,27,28
 33 94 33 94 33 92 c 2,29,-1
 33 68 l 2,30,31
 33 66 33 66 35 66 c 2,32,-1
 36 66 l 6,33,34
 38 66 38 66 38 68 c 6,35,-1
 38 92 l 6,24,25
46 42 m 2,36,37
 46 44 46 44 44 44 c 2,38,-1
 27 44 l 2,39,40
 25 44 25 44 25 42 c 2,41,-1
 25 23 l 2,42,43
 25 21 25 21 27 21 c 2,44,-1
 44 21 l 2,45,46
 46 21 46 21 46 23 c 2,47,-1
 46 42 l 2,36,37
EndSplineSet
EndChar

StartChar: three
Encoding: 51 51 41
Width: 71
VWidth: 161
Flags: W
LayerCount: 2
Fore
SplineSet
44 44 m 2,0,-1
 14 44 l 1,1,-1
 14 66 l 1,2,-1
 38 66 l 2,3,4
 40 66 40 66 40 68 c 2,5,-1
 40 90 l 2,6,7
 40 92 40 92 38 92 c 2,8,-1
 14 92 l 1,9,-1
 14 113 l 1,10,11
 32 113 32 113 50 113 c 0,12,13
 54 113 54 113 57.5 110 c 128,-1,14
 61 107 61 107 61 103 c 2,15,-1
 61 65 l 1,16,17
 63 64 63 64 65 61.5 c 128,-1,18
 67 59 67 59 67 55 c 2,19,-1
 67 10 l 2,20,21
 67 6 67 6 64 3 c 128,-1,22
 61 0 61 0 56 0 c 2,23,-1
 14 0 l 1,24,-1
 14 21 l 1,25,-1
 44 21 l 2,26,27
 46 21 46 21 46 23 c 2,28,-1
 46 42 l 2,29,30
 46 44 46 44 44 44 c 2,0,-1
61 65 m 1025,31,-1
EndSplineSet
EndChar

StartChar: seven
Encoding: 55 55 42
Width: 71
VWidth: 161
Flags: W
LayerCount: 2
Fore
SplineSet
35 62 m 5,0,-1
 19 62 l 5,1,-1
 19 45 l 5,2,-1
 31 45 l 5,3,-1
 21 0 l 1,4,-1
 42 0 l 1,5,-1
 64 103 l 2,6,7
 65 107 65 107 61 110 c 0,8,9
 58 113 58 113 54 113 c 2,10,-1
 4 113 l 1,11,-1
 4 92 l 1,12,-1
 38 92 l 2,13,14
 41 92 41 92 41 90 c 2,15,-1
 35 62 l 5,0,-1
EndSplineSet
EndChar

StartChar: four
Encoding: 52 52 43
Width: 77
VWidth: 161
Flags: W
LayerCount: 2
Fore
SplineSet
47 113 m 5,0,-1
 68 113 l 5,1,-1
 68 0 l 5,2,-1
 47 0 l 5,3,-1
 47 45 l 5,4,-1
 25 45 l 5,5,-1
 17 45 l 4,6,7
 6 45 6 45 6 58 c 4,8,-1
 6 113 l 5,9,-1
 26 113 l 5,10,-1
 26 65 l 6,11,12
 26 63 26 63 28 63 c 6,13,-1
 44 63 l 6,14,15
 46 63 46 63 47 65 c 6,16,-1
 47 113 l 5,0,-1
EndSplineSet
EndChar

StartChar: six
Encoding: 54 54 44
Width: 71
VWidth: 161
Flags: W
LayerCount: 2
Fore
SplineSet
41 21 m 6,0,-1
 28 21 l 6,1,2
 26 21 26 21 25 23 c 6,3,-1
 25 46 l 6,4,5
 25 48 25 48 28 48 c 6,6,-1
 41 48 l 6,7,8
 43 48 43 48 43 46 c 6,9,-1
 43 23 l 6,10,11
 43 21 43 21 41 21 c 6,0,-1
64 11 m 6,12,-1
 64 58 l 6,13,14
 64 62 64 62 61 65.5 c 132,-1,15
 58 69 58 69 54 69 c 6,16,-1
 28 69 l 6,17,18
 26 69 26 69 25 67 c 6,19,-1
 25 90 l 6,20,21
 25 92 25 92 28 92 c 6,22,-1
 58 92 l 5,23,-1
 58 113 l 5,24,-1
 15 113 l 6,25,26
 11 113 11 113 7.5 110 c 132,-1,27
 4 107 4 107 4 103 c 6,28,-1
 4 11 l 6,29,30
 4 7 4 7 7 3.5 c 132,-1,31
 10 0 10 0 15 0 c 6,32,-1
 54 0 l 6,33,34
 58 0 58 0 61 3.5 c 132,-1,35
 64 7 64 7 64 11 c 6,12,-1
EndSplineSet
EndChar

StartChar: slash
Encoding: 47 47 45
Width: 71
VWidth: 161
Flags: W
LayerCount: 2
Fore
SplineSet
44 113 m 5,0,-1
 8 0 l 5,1,-1
 29 0 l 5,2,-1
 65 113 l 5,3,-1
 44 113 l 5,0,-1
EndSplineSet
EndChar

StartChar: period
Encoding: 46 46 46
Width: 71
VWidth: 161
Flags: W
LayerCount: 2
Fore
SplineSet
46 21 m 6,0,1
 46 2 l 6,2,3
 46 0 46 0 44 0 c 6,4,-1
 27 0 l 6,5,6
 25 0 25 0 25 2 c 6,7,-1
 25 21 l 6,8,9
 25 23 25 23 27 23 c 6,10,-1
 44 23 l 6,11,12
 46 23 46 23 46 21 c 6,0,1
EndSplineSet
EndChar

StartChar: comma
Encoding: 44 44 47
Width: 71
VWidth: 161
Flags: W
LayerCount: 2
Fore
SplineSet
50 21 m 6,0,1
 43 -13 l 6,2,3
 42 -15 42 -15 41 -15 c 6,4,-1
 24 -15 l 6,5,6
 21 -15 21 -15 22 -13 c 6,7,-1
 29 21 l 6,8,9
 30 23 30 23 31 23 c 6,10,-1
 48 23 l 6,11,12
 51 23 51 23 50 21 c 6,0,1
EndSplineSet
EndChar

StartChar: hyphen
Encoding: 45 45 48
Width: 71
VWidth: 161
Flags: W
LayerCount: 2
Fore
SplineSet
13 67 m 1,0,-1
 59 67 l 5,1,-1
 59 49 l 5,2,-1
 13 49 l 1,3,-1
 13 67 l 1,0,-1
EndSplineSet
EndChar

StartChar: a
Encoding: 97 97 49
Width: 73
VWidth: 161
Flags: W
LayerCount: 2
Fore
SplineSet
50 0 m 5,0,-1
 48 15 l 5,1,-1
 28 15 l 5,2,-1
 26 0 l 5,3,-1
 5 0 l 5,4,-1
 22 113 l 5,5,-1
 54 113 l 5,6,-1
 71 0 l 5,7,-1
 50 0 l 5,0,-1
38 92 m 5,8,-1
 31 36 l 5,9,-1
 45 36 l 5,10,-1
 38 92 l 5,8,-1
EndSplineSet
EndChar

StartChar: b
Encoding: 98 98 50
Width: 74
VWidth: 161
Flags: W
LayerCount: 2
Fore
SplineSet
68 49 m 2,0,-1
 68 10 l 2,1,2
 68 6 68 6 65 3 c 128,-1,3
 62 0 62 0 57 0 c 2,4,-1
 5 0 l 1,5,-1
 5 113 l 1,6,-1
 57 113 l 2,7,8
 61 113 61 113 64.5 110 c 128,-1,9
 68 107 68 107 68 103 c 2,10,-1
 68 70 l 2,11,12
 68 66 68 66 65 62.5 c 128,-1,13
 62 59 62 59 57 59 c 1,14,15
 61 59 61 59 64.5 56 c 128,-1,16
 68 53 68 53 68 49 c 2,0,-1
26 70 m 1,17,-1
 45 70 l 2,18,19
 47 70 47 70 47 72 c 2,20,-1
 47 90 l 2,21,22
 47 92 47 92 45 92 c 2,23,-1
 26 92 l 1,24,-1
 26 70 l 1,17,-1
26 21 m 1,25,-1
 45 21 l 2,26,27
 47 21 47 21 47 23 c 2,28,-1
 47 46 l 2,29,30
 47 48 47 48 45 49 c 2,31,-1
 26 49 l 1,32,-1
 26 21 l 1,25,-1
EndSplineSet
EndChar

StartChar: c
Encoding: 99 99 51
Width: 62
VWidth: 161
Flags: W
LayerCount: 2
Fore
SplineSet
57 21 m 1,0,-1
 30 21 l 2,1,2
 28 21 28 21 28 23 c 2,3,-1
 28 90 l 2,4,5
 28 92 28 92 30 92 c 2,6,-1
 57 92 l 1,7,-1
 57 113 l 1,8,-1
 17 113 l 2,9,10
 13 113 13 113 10 110 c 128,-1,11
 7 107 7 107 7 103 c 2,12,-1
 7 10 l 2,13,14
 7 6 7 6 10 3 c 128,-1,15
 13 0 13 0 17 0 c 2,16,-1
 57 0 l 1,17,-1
 57 21 l 1,0,-1
EndSplineSet
EndChar

StartChar: d
Encoding: 100 100 52
Width: 75
VWidth: 161
Flags: W
LayerCount: 2
Fore
SplineSet
69 74 m 2,0,-1
 69 39 l 2,1,2
 69 13 69 13 64 7 c 0,3,4
 60 3 60 3 56.5 1.5 c 128,-1,5
 53 0 53 0 47 0 c 2,6,-1
 6 0 l 1,7,-1
 6 113 l 1,8,-1
 47 113 l 2,9,10
 54 113 54 113 57 111.5 c 128,-1,11
 60 110 60 110 64 106 c 0,12,13
 69 100 69 100 69 74 c 2,0,-1
44 92 m 2,14,-1
 27 92 l 1,15,-1
 27 21 l 1,16,-1
 44 21 l 2,17,18
 46 21 46 21 47 22 c 128,-1,19
 48 23 48 23 48 25 c 2,20,-1
 48 88 l 2,21,22
 48 90 48 90 47 91 c 128,-1,23
 46 92 46 92 44 92 c 2,14,-1
EndSplineSet
EndChar

StartChar: e
Encoding: 101 101 53
Width: 59
VWidth: 161
Flags: W
LayerCount: 2
Fore
SplineSet
52 92 m 1,0,-1
 28 92 l 1,1,-1
 28 68 l 1,2,-1
 49 68 l 1,3,-1
 49 47 l 1,4,-1
 28 47 l 1,5,-1
 28 21 l 1,6,-1
 52 21 l 1,7,-1
 52 0 l 1,8,-1
 7 0 l 1,9,-1
 7 113 l 1,10,-1
 52 113 l 1,11,-1
 52 92 l 1,0,-1
EndSplineSet
EndChar

StartChar: f
Encoding: 102 102 54
Width: 57
VWidth: 161
Flags: W
LayerCount: 2
Fore
SplineSet
53 92 m 1,0,-1
 28 92 l 1,1,-1
 28 68 l 1,2,-1
 49 68 l 1,3,-1
 49 46 l 1,4,-1
 28 46 l 1,5,-1
 28 0 l 1,6,-1
 7 0 l 1,7,-1
 7 113 l 1,8,-1
 53 113 l 1,9,-1
 53 92 l 1,0,-1
EndSplineSet
EndChar

StartChar: g
Encoding: 103 103 55
Width: 75
VWidth: 161
Flags: W
LayerCount: 2
Fore
SplineSet
38 63 m 1,0,-1
 68 63 l 2,1,2
 70 63 70 63 70 61 c 2,3,-1
 70 10 l 2,4,5
 70 6 70 6 66.5 3 c 128,-1,6
 63 0 63 0 59 0 c 2,7,-1
 17 0 l 2,8,9
 13 0 13 0 10 3 c 128,-1,10
 7 6 7 6 7 10 c 2,11,-1
 7 103 l 2,12,13
 7 107 7 107 10 110 c 128,-1,14
 13 113 13 113 17 113 c 2,15,-1
 59 113 l 1,16,-1
 59 92 l 1,17,-1
 30 92 l 2,18,19
 28 92 28 92 28 90 c 2,20,-1
 28 23 l 2,21,22
 28 21 28 21 30 21 c 2,23,-1
 47 21 l 2,24,25
 49 21 49 21 49 23 c 2,26,-1
 49 40 l 2,27,28
 49 42 49 42 47 42 c 2,29,-1
 38 42 l 1,30,-1
 38 63 l 1,0,-1
EndSplineSet
EndChar

StartChar: h
Encoding: 104 104 56
Width: 77
VWidth: 161
Flags: W
LayerCount: 2
Fore
SplineSet
49 46 m 1,0,-1
 49 0 l 1,1,-1
 70 0 l 1,2,-1
 70 113 l 1,3,-1
 49 113 l 1,4,-1
 49 68 l 1,5,-1
 28 68 l 1,6,-1
 28 113 l 1,7,-1
 7 113 l 1,8,-1
 7 0 l 1,9,-1
 28 0 l 1,10,-1
 28 46 l 1,11,-1
 49 46 l 1,0,-1
EndSplineSet
EndChar

StartChar: i
Encoding: 105 105 57
Width: 38
VWidth: 161
Flags: W
LayerCount: 2
Fore
SplineSet
8 113 m 5,0,-1
 8 0 l 5,1,-1
 29 0 l 5,2,-1
 29 113 l 5,3,-1
 8 113 l 5,0,-1
EndSplineSet
EndChar

StartChar: j
Encoding: 106 106 58
Width: 57
VWidth: 161
Flags: W
LayerCount: 2
Fore
SplineSet
4 21 m 5,0,-1
 4 0 l 5,1,-1
 42 0 l 6,2,3
 46 0 46 0 49 3 c 132,-1,4
 52 6 52 6 52 10 c 6,5,-1
 52 113 l 5,6,-1
 31 113 l 5,7,-1
 31 23 l 6,8,9
 31 21 31 21 29 21 c 6,10,-1
 4 21 l 5,0,-1
EndSplineSet
EndChar

StartChar: k
Encoding: 107 107 59
Width: 77
VWidth: 161
Flags: W
LayerCount: 2
Fore
SplineSet
25 113 m 1,0,-1
 25 73 l 1,1,-1
 45 113 l 1,2,-1
 68 113 l 1,3,-1
 45 66 l 1,4,-1
 73 0 l 1,5,-1
 50 0 l 1,6,-1
 33 41 l 1,7,-1
 25 26 l 1,8,-1
 25 0 l 1,9,-1
 4 0 l 1,10,-1
 4 113 l 1,11,-1
 25 113 l 1,0,-1
EndSplineSet
EndChar

StartChar: l
Encoding: 108 108 60
Width: 56
VWidth: 161
Flags: W
LayerCount: 2
Fore
SplineSet
25 113 m 1,0,-1
 25 21 l 1,1,-1
 52 21 l 1,2,-1
 52 0 l 1,3,-1
 4 0 l 1,4,-1
 4 113 l 1,5,-1
 25 113 l 1,0,-1
EndSplineSet
EndChar

StartChar: m
Encoding: 109 109 61
Width: 101
VWidth: 161
Flags: W
LayerCount: 2
Fore
SplineSet
37 113 m 1,0,-1
 8 113 l 1,1,-1
 8 0 l 1,2,-1
 29 0 l 1,3,-1
 29 67 l 1,4,-1
 43 0 l 1,5,-1
 60 0 l 1,6,-1
 74 67 l 1,7,-1
 74 0 l 1,8,-1
 95 0 l 1,9,-1
 95 113 l 1,10,-1
 66 113 l 1,11,-1
 51 46 l 1,12,-1
 37 113 l 1,0,-1
EndSplineSet
EndChar

StartChar: n
Encoding: 110 110 62
Width: 77
VWidth: 161
Flags: W
LayerCount: 2
Fore
SplineSet
5 113 m 1,0,-1
 5 0 l 1,1,-1
 26 0 l 1,2,-1
 26 62 l 1,3,-1
 51 0 l 1,4,-1
 72 0 l 1,5,-1
 72 113 l 1,6,-1
 51 113 l 1,7,-1
 51 51 l 1,8,-1
 26 113 l 1,9,-1
 5 113 l 1,0,-1
EndSplineSet
EndChar

StartChar: o
Encoding: 111 111 63
Width: 74
VWidth: 161
Flags: W
LayerCount: 2
Fore
SplineSet
48 90 m 6,0,-1
 48 23 l 6,1,2
 48 21 48 21 46 21 c 6,3,-1
 29 21 l 6,4,5
 27 21 27 21 27 23 c 6,6,-1
 27 90 l 6,7,8
 27 92 27 92 29 92 c 6,9,-1
 46 92 l 6,10,11
 48 92 48 92 48 90 c 6,0,-1
6 103 m 6,12,-1
 6 10 l 6,13,14
 6 6 6 6 9 3 c 132,-1,15
 12 0 12 0 16 0 c 6,16,-1
 58 0 l 6,17,18
 62 0 62 0 65.5 3 c 132,-1,19
 69 6 69 6 69 10 c 6,20,-1
 69 103 l 6,21,22
 69 107 69 107 66 110 c 132,-1,23
 63 113 63 113 58 113 c 6,24,-1
 16 113 l 6,25,26
 12 113 12 113 9 110 c 132,-1,27
 6 107 6 107 6 103 c 6,12,-1
EndSplineSet
EndChar

StartChar: p
Encoding: 112 112 64
Width: 70
VWidth: 161
Flags: W
LayerCount: 2
Fore
SplineSet
67 103 m 2,0,-1
 67 55 l 2,1,2
 67 51 67 51 64 48 c 128,-1,3
 61 45 61 45 57 45 c 2,4,-1
 25 45 l 1,5,-1
 25 0 l 1,6,-1
 4 0 l 1,7,-1
 4 113 l 1,8,-1
 57 113 l 2,9,10
 61 113 61 113 64 110 c 128,-1,11
 67 107 67 107 67 103 c 2,0,-1
25 66 m 1,12,-1
 44 66 l 2,13,14
 46 66 46 66 46 68 c 2,15,-1
 46 90 l 2,16,17
 46 92 46 92 44 92 c 2,18,-1
 25 92 l 1,19,-1
 25 66 l 1,12,-1
EndSplineSet
EndChar

StartChar: q
Encoding: 113 113 65
Width: 74
VWidth: 161
Flags: W
LayerCount: 2
Fore
SplineSet
46 -15 m 1,0,-1
 38 0 l 1,1,-1
 16 0 l 2,2,3
 12 0 12 0 9 3 c 128,-1,4
 6 6 6 6 6 10 c 2,5,-1
 6 103 l 2,6,7
 6 107 6 107 9 110 c 128,-1,8
 12 113 12 113 16 113 c 2,9,-1
 58 113 l 2,10,11
 62 113 62 113 65.5 110 c 128,-1,12
 69 107 69 107 69 103 c 2,13,-1
 69 10 l 2,14,15
 69 6 69 6 66 3 c 128,-1,16
 63 0 63 0 59 0 c 1,17,-1
 67 -15 l 1,18,-1
 46 -15 l 1,0,-1
48 23 m 2,19,-1
 48 90 l 2,20,21
 48 92 48 92 46 92 c 2,22,-1
 29 92 l 2,23,24
 27 92 27 92 27 90 c 2,25,-1
 27 23 l 2,26,27
 27 21 27 21 28 21 c 2,28,-1
 46 21 l 2,29,30
 48 21 48 21 48 23 c 2,19,-1
EndSplineSet
EndChar

StartChar: r
Encoding: 114 114 66
Width: 74
VWidth: 161
Flags: W
LayerCount: 2
Fore
SplineSet
69 103 m 2,0,-1
 69 58 l 2,1,2
 69 54 69 54 65.5 50.5 c 128,-1,3
 62 47 62 47 58 45 c 1,4,-1
 69 0 l 1,5,-1
 46 0 l 1,6,-1
 35 45 l 1,7,-1
 27 45 l 1,8,-1
 27 0 l 1,9,-1
 6 0 l 1,10,-1
 6 113 l 1,11,-1
 58 113 l 2,12,13
 62 113 62 113 65.5 110 c 128,-1,14
 69 107 69 107 69 103 c 2,0,-1
27 66 m 1,15,-1
 46 66 l 2,16,17
 48 66 48 66 48 68 c 2,18,-1
 48 90 l 2,19,20
 48 92 48 92 46 92 c 2,21,-1
 27 92 l 1,22,-1
 27 66 l 1,15,-1
EndSplineSet
EndChar

StartChar: s
Encoding: 115 115 67
Width: 67
VWidth: 161
Flags: W
LayerCount: 2
Fore
SplineSet
59 113 m 5,0,-1
 59 92 l 5,1,-1
 29 92 l 6,2,3
 27 92 27 92 27 90 c 6,4,-1
 27 72 l 6,5,6
 27 70 27 70 29 70 c 6,7,-1
 52 70 l 6,8,9
 56 70 56 70 59 66.5 c 132,-1,10
 62 63 62 63 62 59 c 6,11,-1
 62 10 l 6,12,13
 62 6 62 6 59 3 c 132,-1,14
 56 0 56 0 52 0 c 6,15,-1
 6 0 l 5,16,-1
 6 21 l 5,17,-1
 39 21 l 6,18,19
 41 21 41 21 41 23 c 6,20,-1
 41 46 l 6,21,22
 41 48 41 48 39 49 c 6,23,-1
 17 49 l 6,24,25
 13 49 13 49 9.5 52 c 132,-1,26
 6 55 6 55 6 59 c 6,27,-1
 6 103 l 6,28,29
 6 107 6 107 9 110 c 132,-1,30
 12 113 12 113 17 113 c 6,31,-1
 59 113 l 5,0,-1
EndSplineSet
EndChar

StartChar: t
Encoding: 116 116 68
Width: 59
VWidth: 161
Flags: W
LayerCount: 2
Fore
SplineSet
56 113 m 1,0,-1
 4 113 l 1,1,-1
 4 92 l 1,2,-1
 19 92 l 1,3,-1
 19 0 l 1,4,-1
 40 0 l 1,5,-1
 40 92 l 1,6,-1
 56 92 l 1,7,-1
 56 113 l 1,0,-1
EndSplineSet
EndChar

StartChar: u
Encoding: 117 117 69
Width: 77
VWidth: 161
Flags: W
LayerCount: 2
Fore
SplineSet
17 0 m 2,0,-1
 59 0 l 2,1,2
 63 0 63 0 66.5 3 c 128,-1,3
 70 6 70 6 70 10 c 2,4,-1
 70 113 l 1,5,-1
 49 113 l 5,6,-1
 49 23 l 6,7,8
 49 21 49 21 47 21 c 6,9,-1
 30 21 l 6,10,11
 28 21 28 21 28 23 c 6,12,-1
 28 113 l 5,13,-1
 7 113 l 1,14,-1
 7 10 l 2,15,16
 7 6 7 6 10 3 c 128,-1,17
 13 0 13 0 17 0 c 2,0,-1
EndSplineSet
EndChar

StartChar: v
Encoding: 118 118 70
Width: 75
VWidth: 161
Flags: W
LayerCount: 2
Fore
SplineSet
25 113 m 1,0,-1
 37 32 l 1,1,-1
 49 113 l 1,2,-1
 69 113 l 1,3,-1
 52 0 l 1,4,-1
 22 0 l 1,5,-1
 5 113 l 1,6,-1
 25 113 l 1,0,-1
EndSplineSet
EndChar

StartChar: w
Encoding: 119 119 71
Width: 105
VWidth: 161
Flags: W
LayerCount: 2
Fore
SplineSet
22 113 m 1,0,-1
 32 47 l 1,1,-1
 45 110 l 1,2,-1
 61 110 l 1,3,-1
 74 47 l 1,4,-1
 83 113 l 1,5,-1
 103 113 l 1,6,-1
 86 0 l 1,7,-1
 66 0 l 1,8,-1
 53 68 l 1,9,-1
 39 0 l 1,10,-1
 20 0 l 1,11,-1
 3 113 l 1,12,-1
 22 113 l 1,0,-1
EndSplineSet
EndChar

StartChar: x
Encoding: 120 120 72
Width: 71
VWidth: 161
Flags: W
LayerCount: 2
Fore
SplineSet
70 0 m 1,0,-1
 47 60 l 1,1,-1
 67 113 l 1,2,-1
 45 113 l 1,3,-1
 36 90 l 1,4,-1
 27 113 l 1,5,-1
 4 113 l 1,6,-1
 25 60 l 1,7,-1
 2 0 l 1,8,-1
 25 0 l 1,9,-1
 36 30 l 1,10,-1
 47 0 l 1,11,-1
 70 0 l 1,0,-1
EndSplineSet
EndChar

StartChar: y
Encoding: 121 121 73
Width: 65
VWidth: 161
Flags: W
LayerCount: 2
Fore
SplineSet
43 61 m 1,0,-1
 43 61 l 1,1,-1
 63 113 l 1,2,-1
 42 113 l 1,3,-1
 33 89 l 1,4,-1
 23 113 l 1,5,-1
 2 113 l 1,6,-1
 22 61 l 1,7,-1
 22 0 l 1,8,-1
 43 0 l 1,9,-1
 43 61 l 1,0,-1
EndSplineSet
EndChar

StartChar: z
Encoding: 122 122 74
Width: 72
VWidth: 161
Flags: W
LayerCount: 2
Fore
SplineSet
8 113 m 1,0,-1
 8 92 l 1,1,-1
 38 92 l 1,2,-1
 3 0 l 1,3,-1
 67 0 l 1,4,-1
 67 21 l 1,5,-1
 33 21 l 1,6,-1
 68 113 l 1,7,-1
 8 113 l 1,0,-1
EndSplineSet
EndChar

StartChar: bracketleft
Encoding: 91 91 75
Width: 71
VWidth: 161
Flags: W
LayerCount: 2
Fore
SplineSet
50 0 m 5,0,-1
 29 0 l 6,1,2
 25 0 25 0 22 3 c 132,-1,3
 19 6 19 6 19 10 c 6,4,-1
 19 103 l 6,5,6
 19 107 19 107 22 110 c 132,-1,7
 25 113 25 113 29 113 c 6,8,-1
 50 113 l 5,9,-1
 50 92 l 5,10,-1
 42 92 l 6,11,12
 40 92 40 92 40 90 c 6,13,-1
 40 23 l 6,14,15
 40 21 40 21 42 21 c 6,16,-1
 50 21 l 5,17,-1
 50 0 l 5,0,-1
50 92 m 1029,18,-1
50 21 m 1029,19,-1
50 0 m 1029,20,-1
EndSplineSet
EndChar

StartChar: bracketright
Encoding: 93 93 76
Width: 71
VWidth: 161
Flags: W
LayerCount: 2
Fore
SplineSet
19 0 m 5,0,-1
 40 0 l 6,1,2
 44 0 44 0 47 3 c 132,-1,3
 50 6 50 6 50 10 c 6,4,-1
 50 103 l 6,5,6
 50 107 50 107 47 110 c 132,-1,7
 44 113 44 113 40 113 c 6,8,-1
 19 113 l 5,9,-1
 19 92 l 5,10,-1
 27 92 l 6,11,12
 29 92 29 92 29 90 c 6,13,-1
 29 23 l 6,14,15
 29 21 29 21 27 21 c 6,16,-1
 19 21 l 5,17,-1
 19 0 l 5,0,-1
19 92 m 1029,18,-1
19 21 m 1029,19,-1
19 0 m 1029,20,-1
EndSplineSet
EndChar

StartChar: backslash
Encoding: 92 92 77
Width: 71
VWidth: 161
Flags: W
LayerCount: 2
Fore
SplineSet
29 113 m 1,0,-1
 65 0 l 1,1,-1
 44 0 l 1,2,-1
 8 113 l 1,3,-1
 29 113 l 1,0,-1
EndSplineSet
EndChar
